# This file uses centimeters as units for non-parametric coordinates.

mtllib mino2.mtl
g default
v -0.500000 -0.500000 0.500000
v 0.500000 -0.500000 0.500000
v -0.500000 0.500000 0.500000
v 0.500000 0.500000 0.500000
v -0.500000 0.500000 -0.500000
v 0.500000 0.500000 -0.500000
v -0.500000 -0.500000 -0.500000
v 0.500000 -0.500000 -0.500000
v 0.274064 0.280735 -0.122021
v 0.200739 0.280735 -0.222943
v 0.092705 0.280735 -0.285317
v -0.031358 0.280735 -0.298357
v -0.150000 0.280735 -0.259808
v -0.242705 0.280735 -0.176336
v -0.293444 0.280735 -0.062374
v -0.293444 0.280735 0.062373
v -0.242705 0.280735 0.176336
v -0.150000 0.280735 0.259808
v -0.031359 0.280735 0.298357
v 0.092705 0.280735 0.285317
v 0.200739 0.280735 0.222943
v 0.274064 0.280735 0.122021
v 0.300000 0.280735 0.000000
v 0.274064 0.880735 -0.122021
v 0.200739 0.880735 -0.222943
v 0.092705 0.880735 -0.285317
v -0.031358 0.880735 -0.298357
v -0.150000 0.880735 -0.259808
v -0.242705 0.880735 -0.176336
v -0.293444 0.880735 -0.062374
v -0.293444 0.880735 0.062373
v -0.242705 0.880735 0.176336
v -0.150000 0.880735 0.259808
v -0.031359 0.880735 0.298357
v 0.092705 0.880735 0.285317
v 0.200739 0.880735 0.222943
v 0.274064 0.880735 0.122021
v 0.300000 0.880735 0.000000
v 0.000000 0.280735 0.000000
v 0.000000 0.880735 0.000000
vt 0.375000 0.000000
vt 0.625000 0.000000
vt 0.375000 0.250000
vt 0.625000 0.250000
vt 0.375000 0.500000
vt 0.625000 0.500000
vt 0.375000 0.750000
vt 0.625000 0.750000
vt 0.375000 1.000000
vt 0.625000 1.000000
vt 0.875000 0.000000
vt 0.875000 0.250000
vt 0.125000 0.000000
vt 0.125000 0.250000
vt 0.375000 0.312500
vt 0.391667 0.312500
vt 0.391667 0.688440
vt 0.375000 0.688440
vt 0.408333 0.312500
vt 0.408333 0.688440
vt 0.425000 0.312500
vt 0.425000 0.688440
vt 0.441667 0.312500
vt 0.441667 0.688440
vt 0.458333 0.312500
vt 0.458333 0.688440
vt 0.475000 0.312500
vt 0.475000 0.688440
vt 0.491667 0.312500
vt 0.491667 0.688440
vt 0.508333 0.312500
vt 0.508333 0.688440
vt 0.525000 0.312500
vt 0.525000 0.688440
vt 0.541667 0.312500
vt 0.541667 0.688440
vt 0.558333 0.312500
vt 0.558333 0.688440
vt 0.575000 0.312500
vt 0.575000 0.688440
vt 0.591667 0.312500
vt 0.591667 0.688440
vt 0.608333 0.312500
vt 0.608333 0.688440
vt 0.625000 0.312500
vt 0.625000 0.688440
vt 0.604552 0.040134
vt 0.642741 0.092697
vt 0.500000 0.150000
vt 0.548284 0.007647
vt 0.483667 0.000856
vt 0.421875 0.020934
vt 0.373591 0.064409
vt 0.347164 0.123764
vt 0.347164 0.188736
vt 0.373591 0.248091
vt 0.421875 0.291566
vt 0.483667 0.311644
vt 0.548284 0.304853
vt 0.604552 0.272366
vt 0.642741 0.219803
vt 0.656250 0.156250
vt 0.642741 0.907303
vt 0.604552 0.959866
vt 0.500000 0.837500
vt 0.548284 0.992353
vt 0.483667 0.999144
vt 0.421875 0.979066
vt 0.373591 0.935591
vt 0.347164 0.876236
vt 0.347164 0.811264
vt 0.373591 0.751909
vt 0.421875 0.708434
vt 0.483667 0.688356
vt 0.548284 0.695147
vt 0.604552 0.727634
vt 0.642741 0.780197
vt 0.656250 0.843750
vn 0.000000 0.000000 1.000000
vn 0.000000 0.000000 1.000000
vn 0.000000 0.000000 1.000000
vn 0.000000 0.000000 1.000000
vn 0.000000 1.000000 0.000000
vn 0.000000 1.000000 0.000000
vn 0.000000 1.000000 0.000000
vn 0.000000 1.000000 0.000000
vn 0.000000 0.000000 -1.000000
vn 0.000000 0.000000 -1.000000
vn 0.000000 0.000000 -1.000000
vn 0.000000 0.000000 -1.000000
vn 0.000000 -1.000000 0.000000
vn 0.000000 -1.000000 0.000000
vn 0.000000 -1.000000 0.000000
vn 0.000000 -1.000000 0.000000
vn 1.000000 0.000000 0.000000
vn 1.000000 0.000000 0.000000
vn 1.000000 0.000000 0.000000
vn 1.000000 0.000000 0.000000
vn -1.000000 0.000000 0.000000
vn -1.000000 0.000000 0.000000
vn -1.000000 0.000000 0.000000
vn -1.000000 0.000000 0.000000
vn 0.913545 0.000000 -0.406737
vn 0.669131 0.000000 -0.743145
vn 0.669131 0.000000 -0.743145
vn 0.913545 0.000000 -0.406737
vn 0.309017 0.000000 -0.951057
vn 0.309017 0.000000 -0.951057
vn -0.104528 0.000000 -0.994522
vn -0.104528 0.000000 -0.994522
vn -0.500000 0.000000 -0.866026
vn -0.500000 0.000000 -0.866026
vn -0.809017 0.000000 -0.587785
vn -0.809017 0.000000 -0.587785
vn -0.978148 0.000000 -0.207912
vn -0.978148 0.000000 -0.207912
vn -0.978148 0.000000 0.207912
vn -0.978148 0.000000 0.207912
vn -0.809017 0.000000 0.587785
vn -0.809017 0.000000 0.587785
vn -0.500000 0.000000 0.866025
vn -0.500000 0.000000 0.866025
vn -0.104529 0.000000 0.994522
vn -0.104529 0.000000 0.994522
vn 0.309017 0.000000 0.951057
vn 0.309017 0.000000 0.951057
vn 0.669131 0.000000 0.743145
vn 0.669131 0.000000 0.743145
vn 0.913545 0.000000 0.406737
vn 0.913545 0.000000 0.406737
vn 1.000000 0.000000 -0.000000
vn 1.000000 0.000000 -0.000000
vn 0.000000 -1.000000 -0.000000
vn 0.000000 -1.000000 0.000000
vn 0.000000 -1.000000 -0.000000
vn 0.000000 -1.000000 -0.000000
vn 0.000000 -1.000000 -0.000000
vn 0.000000 -1.000000 0.000000
vn 0.000000 -1.000000 -0.000000
vn 0.000000 -1.000000 -0.000000
vn 0.000000 -1.000000 0.000000
vn 0.000000 -1.000000 0.000000
vn 0.000000 -1.000000 -0.000000
vn 0.000000 -1.000000 0.000000
vn 0.000000 -1.000000 0.000000
vn 0.000000 -1.000000 0.000000
vn 0.000000 -1.000000 -0.000000
vn 0.000000 -1.000000 -0.000000
vn 0.000000 1.000000 -0.000000
vn 0.000000 1.000000 -0.000000
vn 0.000000 1.000000 -0.000000
vn 0.000000 1.000000 0.000000
vn 0.000000 1.000000 0.000000
vn 0.000000 1.000000 0.000000
vn 0.000000 1.000000 -0.000000
vn 0.000000 1.000000 0.000000
vn 0.000000 1.000000 0.000000
vn 0.000000 1.000000 -0.000001
vn 0.000000 1.000000 0.000000
vn 0.000000 1.000000 -0.000000
vn 0.000000 1.000000 -0.000000
vn 0.000000 1.000000 0.000000
vn 0.000000 1.000000 -0.000000
vn 0.000000 1.000000 -0.000000
s off
g polySurface1
usemtl initialShadingGroup
f 1/1/1 2/2/2 4/4/3 3/3/4
f 3/3/5 4/4/6 6/6/7 5/5/8
f 5/5/9 6/6/10 8/8/11 7/7/12
f 7/7/13 8/8/14 2/10/15 1/9/16
f 2/2/17 8/11/18 6/12/19 4/4/20
f 7/13/21 1/1/22 3/3/23 5/14/24
s 1
f 9/15/25 10/16/26 25/17/27 24/18/28
f 10/16/26 11/19/29 26/20/30 25/17/27
f 11/19/29 12/21/31 27/22/32 26/20/30
f 12/21/31 13/23/33 28/24/34 27/22/32
f 13/23/33 14/25/35 29/26/36 28/24/34
f 14/25/35 15/27/37 30/28/38 29/26/36
f 15/27/37 16/29/39 31/30/40 30/28/38
f 16/29/39 17/31/41 32/32/42 31/30/40
f 17/31/41 18/33/43 33/34/44 32/32/42
f 18/33/43 19/35/45 34/36/46 33/34/44
f 19/35/45 20/37/47 35/38/48 34/36/46
f 20/37/47 21/39/49 36/40/50 35/38/48
f 21/39/49 22/41/51 37/42/52 36/40/50
f 22/41/51 23/43/53 38/44/54 37/42/52
f 23/43/53 9/45/25 24/46/28 38/44/54
s 2
f 10/47/55 9/48/56 39/49/57
f 11/50/58 10/47/55 39/49/57
f 12/51/59 11/50/58 39/49/57
f 13/52/60 12/51/59 39/49/57
f 14/53/61 13/52/60 39/49/57
f 15/54/62 14/53/61 39/49/57
f 16/55/63 15/54/62 39/49/57
f 17/56/64 16/55/63 39/49/57
f 18/57/65 17/56/64 39/49/57
f 19/58/66 18/57/65 39/49/57
f 20/59/67 19/58/66 39/49/57
f 21/60/68 20/59/67 39/49/57
f 22/61/69 21/60/68 39/49/57
f 23/62/70 22/61/69 39/49/57
f 9/48/56 23/62/70 39/49/57
s 3
f 24/63/71 25/64/72 40/65/73
f 25/64/72 26/66/74 40/65/73
f 26/66/74 27/67/75 40/65/73
f 27/67/75 28/68/76 40/65/73
f 28/68/76 29/69/77 40/65/73
f 29/69/77 30/70/78 40/65/73
f 30/70/78 31/71/79 40/65/73
f 31/71/79 32/72/80 40/65/73
f 32/72/80 33/73/81 40/65/73
f 33/73/81 34/74/82 40/65/73
f 34/74/82 35/75/83 40/65/73
f 35/75/83 36/76/84 40/65/73
f 36/76/84 37/77/85 40/65/73
f 37/77/85 38/78/86 40/65/73
f 38/78/86 24/63/71 40/65/73
